<?xml version="1.0" encoding="UTF-8" standalone="no"?>
<svg
   xmlns:dc="http://purl.org/dc/elements/1.1/"
   xmlns:cc="http://creativecommons.org/ns#"
   xmlns:rdf="http://www.w3.org/1999/02/22-rdf-syntax-ns#"
   xmlns:svg="http://www.w3.org/2000/svg"
   xmlns="http://www.w3.org/2000/svg"
   xmlns:sodipodi="http://sodipodi.sourceforge.net/DTD/sodipodi-0.dtd"
   xmlns:inkscape="http://www.inkscape.org/namespaces/inkscape"
   id="Layer_1"
   data-name="Layer 1"
   width="24"
   height="24"
   viewBox="0 0 24 24"
   version="1.1"
   sodipodi:docname="Artboard 1.svg"
   inkscape:version="1.0.1 (c497b03c, 2020-09-10)">
  <metadata
     id="metadata62">
    <rdf:RDF>
      <cc:Work
         rdf:about="">
        <dc:format>image/svg+xml</dc:format>
        <dc:type
           rdf:resource="http://purl.org/dc/dcmitype/StillImage" />
        <dc:title></dc:title>
      </cc:Work>
    </rdf:RDF>
  </metadata>
  <defs
     id="defs60" />
  <sodipodi:namedview
     pagecolor="#ffffff"
     bordercolor="#666666"
     borderopacity="1"
     objecttolerance="10"
     gridtolerance="10"
     guidetolerance="10"
     inkscape:pageopacity="0"
     inkscape:pageshadow="2"
     inkscape:window-width="1826"
     inkscape:window-height="1135"
     id="namedview58"
     showgrid="false"
     inkscape:document-units="px"
     units="px"
     inkscape:pagecheckerboard="true"
     inkscape:zoom="39.19"
     inkscape:cx="9.5527403"
     inkscape:cy="11.915436"
     inkscape:window-x="132"
     inkscape:window-y="53"
     inkscape:window-maximized="0"
     inkscape:current-layer="Layer_1"
     inkscape:document-rotation="0"
     inkscape:snap-global="false" />
  <path
     id="path55"
     d="M 7.3111769,4.2330037e-5 A 0.4109719,0.40933592 0 0 0 7.0390488,0.10924017 L 1.1148828,5.4209353 a 0.40094819,0.39935212 0 0 0 0,0.559639 l 5.8732645,5.2999947 a 0.4109719,0.40933592 0 0 0 0.4307061,0.07995 0.39092448,0.38936831 0 0 0 0.2819167,-0.349044 L 7.3796984,8.3556274 8.3624913,8.4531254 a 0.55130375,0.54910915 0 0 0 0.019577,0.00195 0.55130375,0.54910915 0 0 0 0.00979,0 l -0.00587,-0.0039 a 0.55130375,0.54910915 0 0 0 0.054818,0.0039 H 14.145699 L 7.8906723,15.753781 a 0.53125635,0.52914155 0 0 0 -0.080267,0.588889 0.55130375,0.54910915 0 0 0 0.5011852,0.329544 h 7.2260715 a 0.55130375,0.54910915 0 0 0 0.19186,-0.039 l 1.282329,-0.13065 a 0.40094819,0.39935212 0 0 0 0.401342,-0.399743 l -0.321072,-2.156656 4.931583,4.354264 -4.912007,4.332814 h -0.04894 l 0.319111,-2.156658 A 0.40094819,0.39935212 0 0 0 16.982492,20.076842 H 3.1098351 l 1.4330765,-1.776414 a 0.40094819,0.39935212 0 0 0 -0.060691,-0.55964 0.38090078,0.37938451 0 0 0 -0.2505925,-0.08969 0.40094819,0.39935212 0 0 0 -0.311283,0.150146 l -1.9440506,2.464751 a 0.38090078,0.37938451 0 0 0 -0.050902,0.41924 0.39092448,0.38936831 0 0 0 0.3621846,0.220345 H 16.600724 l -0.311284,2.685097 a 0.39092448,0.38936831 0 0 0 0.671511,0.290544 l 5.924165,-5.282446 a 0.40094819,0.39935212 0 0 0 0,-0.559639 l -6.004434,-5.299994 a 0.4109719,0.40933592 0 0 0 -0.430707,-0.07995 0.39092448,0.38936831 0 0 0 -0.240802,0.368542 l 0.32107,2.636348 -0.990622,-0.09165 a 0.55130375,0.54910915 0 0 1 0.0137,0.0039 0.55130375,0.54910915 0 0 1 0.446367,0.536239 h -0.0098 a 0.55130375,0.54910915 0 0 0 -0.43658,-0.536239 0.55130375,0.54910915 0 0 0 -0.03133,-0.0039 l -0.02349,-0.0039 -0.0509,-0.0039 H 9.4333831 L 15.68841,8.2756788 A 0.56132745,0.55909296 0 0 0 15.267493,7.3572471 H 8.4408015 a 0.55130375,0.54910915 0 0 0 -0.048944,0.0039 v -0.0039 a 0.55130375,0.54910915 0 0 0 -0.074395,0.0078 L 6.9881473,7.5171439 A 0.40094819,0.39935212 0 0 0 6.5868076,7.916886 L 6.9078794,10.073543 1.976295,5.7192795 6.8883019,1.3864649 6.5965963,3.5041232 a 0.40094819,0.39935212 0 0 0 0.4013398,0.399742 H 20.890164 l -1.433077,1.7764149 a 0.40094819,0.39935212 0 0 0 0.06069,0.5596389 0.38090078,0.37938451 0 0 0 0.250592,0.089698 0.40094819,0.39935212 0 0 0 0.311283,-0.1501471 l 1.94405,-2.4257517 A 0.38090078,0.37938451 0 0 0 22.074612,3.3344763 0.39092448,0.38936831 0 0 0 21.712427,3.1141307 H 7.3992758 L 7.7105588,0.42903382 A 0.40094819,0.39935212 0 0 0 7.469755,0.02929176 0.4109719,0.40933592 0 0 0 7.3111769,4.2330037e-5 Z M 15.522001,15.572434 h 0.01763 a 0.55130375,0.54910915 0 0 0 -0.02937,-0.0039 0.55130375,0.54910915 0 0 1 0.01175,0.0039 z m 0.03133,1.080279 a 0.55130375,0.54910915 0 0 1 -0.10572,0.0098 z"
     style="stroke-width:1.00037" />
</svg>
