<svg data-name="Layer 1" xmlns="http://www.w3.org/2000/svg" width="24" height="24"><path d="M7.93 8a.15.15 0 010-.07m0 .07a.29.29 0 000 .09m0 0a.51.51 0 00.07.14m0 0a.55.55 0 00.4.21m0-1.1L7 7.5a.4.4 0 00-.4.4l.32 2.16L2 5.7l4.9-4.34-.29 2.12a.4.4 0 00.4.4h13.86l-1.43 1.78a.4.4 0 00.06.56.38.38 0 00.25.09.4.4 0 00.31-.15L22 3.73a.38.38 0 00.05-.42.39.39 0 00-.36-.22H7.41L7.72.4a.4.4 0 00-.24-.4.41.41 0 00-.43.08L1.14 5.4a.4.4 0 000 .56L7 11.27a.41.41 0 00.43.08.39.39 0 00.28-.35l-.32-2.66 1 .1zm0 0a.55.55 0 00-.53.55m9 4.84a.41.41 0 00-.43-.08.39.39 0 00-.24.37l.32 2.64-1.08-.1a.55.55 0 010 1.1L17 16.5a.4.4 0 00.4-.4l-.32-2.16L22 18.3l-4.9 4.34h-.05l.32-2.16a.4.4 0 00-.4-.4H3.13l1.43-1.78a.4.4 0 00-.06-.56.38.38 0 00-.25-.09.4.4 0 00-.31.15L2 20.27a.38.38 0 00-.05.42.39.39 0 00.36.22h14.28l-.31 2.69a.39.39 0 00.67.29l5.91-5.29a.4.4 0 000-.56zm-.89 3.38a.55.55 0 00-.54-.55h-6l6.24-7.3a.56.56 0 00-.42-.92H8.45a.55.55 0 000 1.1h5.69L7.9 15.75a.53.53 0 00-.08.59.55.55 0 00.5.33h7.21a.55.55 0 00.54-.56z"/></svg>