<svg xmlns="http://www.w3.org/2000/svg" data-name="Layer 1" width="24" height="24"><path d="M7.311 0a.411.41 0 00-.272.11L1.115 5.42a.4.4 0 000 .56l5.873 5.3a.411.41 0 00.43.08.39.39 0 00.283-.349L7.38 8.356l.982.097a.551.55 0 00.02.002.551.55 0 00.01 0l-.006-.004a.551.55 0 00.055.004h5.705L7.89 15.754a.531.53 0 00-.08.589.551.55 0 00.5.33h7.227a.551.55 0 00.192-.04l1.282-.13a.4.4 0 00.401-.4l-.32-2.157 4.93 4.354-4.911 4.333h-.05l.32-2.156a.4.4 0 00-.4-.4H3.11L4.543 18.3a.4.4 0 00-.06-.56.38.38 0 00-.251-.089.4.4 0 00-.312.15l-1.944 2.465a.38.38 0 00-.05.42.39.39 0 00.362.22H16.6l-.312 2.685a.39.39 0 00.672.29l5.924-5.282a.4.4 0 000-.56l-6.004-5.3a.411.41 0 00-.431-.08.39.39 0 00-.24.369l.32 2.636-.99-.092a.551.55 0 01.013.004.551.55 0 01.447.537h-.01a.551.55 0 00-.437-.537.551.55 0 00-.031-.004l-.024-.003-.05-.004H9.433l6.255-7.29a.561.56 0 00-.42-.918H8.44a.551.55 0 00-.05.004v-.004a.551.55 0 00-.074.008l-1.329.152a.4.4 0 00-.401.4l.32 2.157-4.93-4.355 4.911-4.333-.291 2.118a.4.4 0 00.4.4H20.89L19.457 5.68a.4.4 0 00.06.56.38.38 0 00.251.09.4.4 0 00.312-.15l1.944-2.426a.38.38 0 00.05-.42.39.39 0 00-.362-.22H7.4L7.711.43a.4.4 0 00-.241-.4A.411.41 0 007.31 0zm8.211 15.572h.018a.551.55 0 00-.03-.003.551.55 0 01.012.003zm.031 1.08a.551.55 0 01-.105.01z"/></svg>