<svg id="Layer_1" data-name="Layer 1" xmlns="http://www.w3.org/2000/svg" width="22" height="24" viewBox="0 0 22 24"><path d="M7.93,8a.15.15,0,0,1,0-.07m0,.07a.29.29,0,0,0,0,.09m0,0A.51.51,0,0,0,8,8.23m0,0a.55.55,0,0,0,.4.21m0-1.1L7,7.5a.4.4,0,0,0-.4.4l.32,2.16L2,5.7l4.9-4.34,0,0L6.61,3.48a.4.4,0,0,0,.4.4H20.87L19.44,5.66a.4.4,0,0,0,.06.56.38.38,0,0,0,.25.09.4.4,0,0,0,.31-.15L22,3.73a.38.38,0,0,0,.05-.42.39.39,0,0,0-.36-.22H7.41L7.72.4A.4.4,0,0,0,7.48,0a.41.41,0,0,0-.43.08L1.14,5.4h0l0,0a.4.4,0,0,0,0,.56L7,11.27a.41.41,0,0,0,.43.08A.39.39,0,0,0,7.71,11L7.39,8.34l1,.1Zm0,0a.55.55,0,0,0-.53.55m9,4.84a.41.41,0,0,0-.43-.08.39.39,0,0,0-.24.37l.32,2.64-1.08-.1a.55.55,0,0,1,0,1.1L17,16.5a.4.4,0,0,0,.4-.4l-.32-2.16L22,18.3l-4.9,4.34-.05,0,.32-2.16a.4.4,0,0,0-.4-.4H3.13l1.43-1.78a.4.4,0,0,0-.06-.56.38.38,0,0,0-.25-.09.4.4,0,0,0-.31.15L2,20.27a.38.38,0,0,0-.05.42.39.39,0,0,0,.36.22H16.59l-.31,2.69a.39.39,0,0,0,.67.29l5.91-5.29h0s0,0,0,0a.4.4,0,0,0,0-.56Zm-.89,3.38a.55.55,0,0,0-.54-.55h-6l6.24-7.3a.56.56,0,0,0-.42-.92H8.45a.55.55,0,0,0,0,1.1h5.69L7.9,15.75a.53.53,0,0,0-.08.59.55.55,0,0,0,.5.33h7.21A.55.55,0,0,0,16.07,16.11Z" transform="translate(-1)"/></svg>