<?xml version="1.0" encoding="UTF-8" standalone="no"?>
<svg
   xmlns:dc="http://purl.org/dc/elements/1.1/"
   xmlns:cc="http://creativecommons.org/ns#"
   xmlns:rdf="http://www.w3.org/1999/02/22-rdf-syntax-ns#"
   xmlns:svg="http://www.w3.org/2000/svg"
   xmlns="http://www.w3.org/2000/svg"
   xmlns:sodipodi="http://sodipodi.sourceforge.net/DTD/sodipodi-0.dtd"
   xmlns:inkscape="http://www.inkscape.org/namespaces/inkscape"
   id="Layer_1"
   data-name="Layer 1"
   width="24"
   height="24"
   viewBox="0 0 24 24"
   version="1.1"
   sodipodi:docname="Artboard 1.svg"
   inkscape:version="1.0.1 (c497b03c, 2020-09-10)">
  <metadata
     id="metadata62">
    <rdf:RDF>
      <cc:Work
         rdf:about="">
        <dc:format>image/svg+xml</dc:format>
        <dc:type
           rdf:resource="http://purl.org/dc/dcmitype/StillImage" />
        <dc:title></dc:title>
      </cc:Work>
    </rdf:RDF>
  </metadata>
  <defs
     id="defs60" />
  <sodipodi:namedview
     pagecolor="#ffffff"
     bordercolor="#666666"
     borderopacity="1"
     objecttolerance="10"
     gridtolerance="10"
     guidetolerance="10"
     inkscape:pageopacity="0"
     inkscape:pageshadow="2"
     inkscape:window-width="1826"
     inkscape:window-height="1135"
     id="namedview58"
     showgrid="false"
     inkscape:document-units="pt"
     units="px"
     inkscape:pagecheckerboard="true"
     inkscape:zoom="42"
     inkscape:cx="10.738095"
     inkscape:cy="11.380952"
     inkscape:window-x="132"
     inkscape:window-y="53"
     inkscape:window-maximized="0"
     inkscape:current-layer="Layer_1"
     inkscape:document-rotation="0" />
  <path
     id="path55"
     d="M 7.3111771,4.2330034e-5 A 0.41097191,0.40933593 0 0 0 7.0390491,0.10924018 L 1.1148828,5.4209355 a 0.4009482,0.39935213 0 0 0 0,0.559639 l 5.8732647,5.2999945 a 0.41097191,0.40933593 0 0 0 0.4307061,0.07995 0.39092449,0.38936832 0 0 0 0.2819167,-0.349043 L 7.3796986,8.3556277 8.3624915,8.4531257 a 0.55130377,0.54910917 0 0 0 0.019577,0.00195 0.55130377,0.54910917 0 0 0 0.00979,0 l -0.00587,-0.0039 a 0.55130377,0.54910917 0 0 0 0.054818,0.0039 H 14.145699 L 7.8906725,15.753781 a 0.53125637,0.52914157 0 0 0 -0.080267,0.588889 0.55130377,0.54910917 0 0 0 0.5011853,0.329544 h 7.2260722 a 0.55130377,0.54910917 0 0 0 0.19186,-0.039 l 1.282329,-0.13065 a 0.4009482,0.39935213 0 0 0 0.401341,-0.399743 l -0.321072,-2.156657 4.931584,4.354264 -4.912007,4.332815 h -0.04894 l 0.319114,-2.156657 a 0.4009482,0.39935213 0 0 0 -0.39938,-0.399743 H 3.1098351 l 1.4330766,-1.776415 a 0.4009482,0.39935213 0 0 0 -0.060691,-0.559639 0.38090079,0.37938452 0 0 0 -0.2505925,-0.08969 0.4009482,0.39935213 0 0 0 -0.311283,0.150147 l -1.9440507,2.464751 a 0.38090079,0.37938452 0 0 0 -0.050902,0.419239 0.39092449,0.38936832 0 0 0 0.3621846,0.220346 H 16.600725 l -0.311284,2.685097 a 0.39092449,0.38936832 0 0 0 0.67151,0.290544 l 5.924166,-5.282446 a 0.4009482,0.39935213 0 0 0 0,-0.559639 l -6.004434,-5.299995 a 0.41097191,0.40933593 0 0 0 -0.430707,-0.07995 0.39092449,0.38936832 0 0 0 -0.240803,0.368542 l 0.321071,2.636348 -0.990623,-0.09165 a 0.55130377,0.54910917 0 0 1 0.0137,0.0039 0.55130377,0.54910917 0 0 1 0.446368,0.536239 h -0.0098 a 0.55130377,0.54910917 0 0 0 -0.43658,-0.536239 0.55130377,0.54910917 0 0 0 -0.03133,-0.0039 l -0.02349,-0.0039 -0.0509,-0.0039 H 9.4333834 L 15.688411,8.2756792 A 0.56132748,0.55909298 0 0 0 15.267493,7.3572474 H 8.4408018 a 0.55130377,0.54910917 0 0 0 -0.048944,0.0039 v -0.0039 a 0.55130377,0.54910917 0 0 0 -0.074395,0.0078 L 6.9881475,7.5171442 A 0.4009482,0.39935213 0 0 0 6.5868078,7.9168863 L 6.9078796,10.073544 1.976295,5.7192797 6.8883021,1.386465 6.5965965,3.5041233 A 0.4009482,0.39935213 0 0 0 6.9979363,3.9038654 H 20.890165 l -1.433077,1.7764149 a 0.4009482,0.39935213 0 0 0 0.06069,0.559639 0.38090079,0.37938452 0 0 0 0.250592,0.089698 0.4009482,0.39935213 0 0 0 0.311283,-0.1501471 l 1.94405,-2.4257518 A 0.38090079,0.37938452 0 0 0 22.074607,3.3344766 0.39092449,0.38936832 0 0 0 21.712422,3.114131 H 7.399276 L 7.710559,0.42903383 A 0.4009482,0.39935213 0 0 0 7.4697553,0.02929176 0.41097191,0.40933593 0 0 0 7.3111771,4.2330034e-5 Z M 15.522001,15.572435 h 0.01762 a 0.55130377,0.54910917 0 0 0 -0.02937,-0.0039 0.55130377,0.54910917 0 0 1 0.01175,0.0039 z m 0.03133,1.080279 a 0.55130377,0.54910917 0 0 1 -0.105719,0.0098 z"
     style="stroke-width:1.00037" />
</svg>
