<svg role="img" xmlns="http://www.w3.org/2000/svg" viewBox="0 0 24 24"><title>Zeek icon</title><path d="M6.92 8v-.09m0 .07v.09m0 0a.8.8 0 00.08.16m0 0a.57.57 0 00.4.21m0-1.1L6 7.5a.39.39 0 00-.39.4l.31 2.16L1 5.7l4.9-4.34-.29 2.12a.4.4 0 00.4.4h13.85l-1.43 1.78a.4.4 0 00.06.56.38.38 0 00.25.09.4.4 0 00.31-.15L21 3.73a.38.38 0 000-.42.39.39 0 00-.36-.22H6.4L6.72.4a.4.4 0 00-.24-.4.41.41 0 00-.43.08L.14 5.4a.4.4 0 00-.02.6L6 11.27a.4.4 0 00.43.08.41.41 0 00.28-.35l-.32-2.66 1 .1zm0 0a.54.54 0 00-.53.55m9 4.84a.4.4 0 00-.43-.08.39.39 0 00-.24.37l.32 2.64-1.07-.1a.55.55 0 010 1.1L16 16.5a.4.4 0 00.4-.4l-.32-2.16L21 18.3l-4.9 4.34h-.05l.32-2.16a.4.4 0 00-.4-.4H2.13l1.43-1.78a.4.4 0 00-.06-.56.4.4 0 00-.25-.09.39.39 0 00-.31.15L1 20.27a.39.39 0 00.31.64h14.28l-.32 2.69a.39.39 0 00.67.29l5.91-5.29a.4.4 0 000-.56zm-.89 3.38a.55.55 0 00-.53-.55h-6l6.23-7.3a.56.56 0 00-.42-.92H7.45a.54.54 0 00-.53.55.56.56 0 00.51.55h5.69l-6.23 7.3a.55.55 0 00-.08.59.56.56 0 00.51.33h7.2a.55.55 0 00.54-.55z"/></svg>
